<svg xmlns="http://www.w3.org/2000/svg" data-name="S_DownloadFromCloud_12_N_D@2x" height="24" id="S_DownloadFromCloud_12_N_D_2x" viewBox="0 0 24 24" width="24">
  <defs>
    <style>
      .fill {
        fill: #fff;
        opacity: 0.65;
      }

      
    </style>
  </defs>
  <title>S_DownloadFromCloud_12_N_D@2x</title>
  <path class="fill" d="M23.512,9.52A4.337,4.337,0,0,0,19.456,7h-.013a5.839,5.839,0,0,0-5.586-6A5.6,5.6,0,0,0,8.439,5.214a5.046,5.046,0,0,0-2.934.327A4.753,4.753,0,0,0,2.663,10v.02a3,3,0,0,0-2.6,3.28A3.089,3.089,0,0,0,3.182,16H8V14H3.036a1,1,0,0,1-1-1c0-.022,0-.045,0-.067a.964.964,0,0,1,1-.933H4.653V10A2.982,2.982,0,0,1,7.514,7H10l.315-1.1a3.768,3.768,0,0,1,3.168-2.88c.121-.012.244-.019.366-.019a3.619,3.619,0,0,1,3.614,3.624V9h1.843a2.591,2.591,0,0,1,2.621,2.239,2.536,2.536,0,0,1,.014.261A2.494,2.494,0,0,1,19.456,14H14v2h5.456a4.525,4.525,0,0,0,4.056-6.48Z" />
  <path class="fill" d="M16,18.72a1,1,0,0,0-1.406-.156h0L12,20.639V11H10v9.639L7.406,18.564A1,1,0,0,0,6,18.72H6a1,1,0,0,0,.156,1.406h0L11,24l4.844-3.874A1,1,0,0,0,16,18.72Z" />
  </svg>