<svg xmlns="http://www.w3.org/2000/svg" data-name="S_MissingFont_17x15_N_D@2x" height="30" id="S_MissingFont_17x15_N_D_2x" viewBox="0 0 34 30" width="34">
  <defs>
    <style>
	.background {
		fill: #000000;
		
        opacity: 0.65;
      }
	.yellow {
        fill: #f4c500;
      }</style>
  </defs>
  <title>S_MissingFont_17x15_N_D@2x</title>
  <rect class="background" height="30" width="34" />
  <path class="yellow" d="M21.5,8a.5.5,0,0,1,.5.5v3a.5.5,0,0,1-.5.5h-1a.5.5,0,0,1-.5-.5V10H16V20h1.5a.5.5,0,0,1,.5.5v1a.5.5,0,0,1-.5.5h-5a.5.5,0,0,1-.5-.5v-1a.5.5,0,0,1,.5-.5H14V10H10v1.473a.5.5,0,0,1-.5.5h-1a.5.5,0,0,1-.5-.5V8.5A.5.5,0,0,1,8.5,8Z" />
  <path class="yellow" d="M31.924,26.988,25.6,14.384a.7.7,0,0,0-1.247,0l-6.281,12.6A.7.7,0,0,0,18.7,28H31.3a.7.7,0,0,0,.623-1.012ZM23.96,18.55a.144.144,0,0,1,.1-.147,3.053,3.053,0,0,1,.9-.144,3.609,3.609,0,0,1,.917.109c.089.033.117.093.117.128v.927a30.5,30.5,0,0,1-.435,4c0,.033-.019.068-.123.068h-.919c-.07,0-.1-.022-.123-.068a37.1,37.1,0,0,1-.436-4Zm1.018,8.082a1.054,1.054,0,1,1,1.054-1.055A1.054,1.054,0,0,1,24.978,26.632Z" />
  <path class="yellow" d="M16.283,26.1l.05-.1H4V4H30V18.692l2,3.987V3a1,1,0,0,0-1-1H3A1,1,0,0,0,2,3V27a1,1,0,0,0,1,1H16.1A2.684,2.684,0,0,1,16.283,26.1Z" />
  <path class="background" d="M24.519,23.492h.919c.1,0,.123-.035.123-.068a30.487,30.487,0,0,0,.435-4V18.5c0-.036-.029-.1-.117-.128a3.607,3.607,0,0,0-.917-.109,3.055,3.055,0,0,0-.9.144.144.144,0,0,0-.1.147v.872a37.114,37.114,0,0,0,.436,4C24.414,23.47,24.45,23.492,24.519,23.492Z" />
  <circle class="background" cx="24.979" cy="25.578" r="1.054" />
  </svg>