<?xml version="1.0" encoding="utf-8"?>
<!-- Generator: Adobe Illustrator 22.1.0, SVG Export Plug-In . SVG Version: 6.00 Build 0)  -->
<svg version="1.1" id="S_ChevronLeft_18_N_2x" xmlns="http://www.w3.org/2000/svg" xmlns:xlink="http://www.w3.org/1999/xlink"
	 x="0px" y="0px" viewBox="0 0 36 36" style="enable-background:new 0 0 36 36;" xml:space="preserve">
<style type="text/css">
	.st0{fill:#707070;}
</style>
<title>S_ChevronLeft_18_N@2x</title>
<path id="S_MillerColumnsChevronPrevious" class="st0" d="M24.1,18L24.1,18c0,0.5-0.2,1-0.6,1.4l-8,8c-0.7,0.8-2,1-2.8,0.2
	c-0.8-0.7-1-2-0.2-2.8c0.1-0.1,0.1-0.1,0.2-0.2l0,0l6.6-6.6l-6.6-6.6C12,10.6,12,9.3,12.8,8.6c0.7-0.7,1.9-0.7,2.6,0l0,0l8,8
	C23.9,17,24.1,17.5,24.1,18z"/>
</svg>
