<svg xmlns="http://www.w3.org/2000/svg" data-name="S_CheckmarkCircleHud_16_N_D@2x" height="32" id="S_CheckmarkCircleHud_16_N_D_2x" viewBox="0 0 32 32" width="32">
  <defs>
    <style>
      .blue {
        fill: #2d8ceb;
      }

      .cls-1 {
        opacity: 0.65;
      }

      .cls-2 {
        fill: #fff;
      }

      
    </style>
  </defs>
  <title>S_CheckmarkCircleHud_16_N_D@2x</title>
  <path class="blue" d="M16,2A14,14,0,1,0,30,16,14,14,0,0,0,16,2Zm9.794,8.937-10.58,13.6a1.2,1.2,0,0,1-.875.461c-.023,0-.048,0-.072,0a1.2,1.2,0,0,1-.85-.352L6.338,17.56a1,1,0,0,1,0-1.413l1.608-1.609a1,1,0,0,1,1.414,0L14,19.178l8.442-10.85a1,1,0,0,1,1.4-.175l1.773,1.38A1,1,0,0,1,25.794,10.937Z" />
  <path class="cls-1" d="M16,.2A15.8,15.8,0,1,0,31.8,16,15.8,15.8,0,0,0,16,.2ZM16,30A14,14,0,1,1,30,16,14,14,0,0,1,16,30Z" />
  <path class="cls-2" d="M22.442,8.328,14,19.178l-4.639-4.64a1,1,0,0,0-1.414,0L6.339,16.147a1,1,0,0,0,0,1.414l7.079,7.087a1.2,1.2,0,0,0,.85.352c.024,0,.049,0,.072,0a1.2,1.2,0,0,0,.875-.461l10.58-13.6a1,1,0,0,0-.175-1.4l-1.773-1.38A1,1,0,0,0,22.442,8.328Z" />
  </svg>