<svg xmlns="http://www.w3.org/2000/svg" data-name="S_DollarCircleHud_16_N_D@2x" height="32" id="S_DollarCircleHud_16_N_D_2x" viewBox="0 0 32 32" width="32">
  <defs>
    <style>
      .blue {
        fill: #2d8ceb;
      }

      .cls-1 {
        opacity: 0.65;
      }

      .cls-2 {
        fill: #fff;
      }

      
    </style>
  </defs>
  <title>S_DollarCircleHud_16_N_D@2x</title>
  <path class="blue" d="M16,2A14,14,0,1,0,30,16,14,14,0,0,0,16,2Zm1.38,22.6v3.235c0,.138-.055.166-.165.166H14.841c-.111,0-.166-.055-.166-.193v-3.07a9.963,9.963,0,0,1-4.665-1.408.447.447,0,0,1-.166-.414V20.32a.153.153,0,0,1,.249-.138,10.036,10.036,0,0,0,5.6,1.849c2.126,0,2.982-.8,2.982-1.849,0-1.077-.773-1.767-3.479-2.733-4.14-1.518-5.355-2.871-5.355-5.383,0-2.263,1.739-4.306,4.859-4.775v-3.1c0-.138.027-.193.138-.193h2.374c.138,0,.193.028.193.193V7.236a7.88,7.88,0,0,1,3.754,1.076.319.319,0,0,1,.11.276v2.54a.13.13,0,0,1-.221.11,9.1,9.1,0,0,0-4.913-1.407c-2.263,0-2.981,1.076-2.981,1.9,0,1.049.938,1.712,3.7,2.733,4.554,1.656,5.3,3.285,5.3,5.41C22.156,22.832,19.561,24.3,17.38,24.6Z" />
  <path class="cls-1" d="M16,.2A15.8,15.8,0,1,0,31.8,16,15.8,15.8,0,0,0,16,.2ZM16,30A14,14,0,1,1,30,16,14,14,0,0,1,16,30Z" />
  <path class="cls-2" d="M17.38,27.834c0,.138-.055.166-.165.166H14.841c-.111,0-.166-.055-.166-.193v-3.07a9.963,9.963,0,0,1-4.665-1.408.447.447,0,0,1-.166-.414V20.32a.153.153,0,0,1,.249-.138,10.029,10.029,0,0,0,5.6,1.849c2.126,0,2.982-.8,2.982-1.849,0-1.077-.773-1.767-3.479-2.733-4.14-1.518-5.355-2.871-5.355-5.382,0-2.264,1.739-4.307,4.859-4.776v-3.1c0-.138.027-.193.138-.193h2.374c.138,0,.193.028.193.193V7.236a7.88,7.88,0,0,1,3.754,1.076.319.319,0,0,1,.11.276v2.54a.13.13,0,0,1-.221.11,9.1,9.1,0,0,0-4.913-1.407c-2.263,0-2.981,1.076-2.981,1.9,0,1.049.938,1.712,3.7,2.733,4.554,1.656,5.3,3.285,5.3,5.41,0,2.954-2.595,4.417-4.776,4.721Z" />
  </svg>