<svg xmlns="http://www.w3.org/2000/svg" data-name="S_Info_12_N_D@2x" height="24" id="S_Info_12_N_D_2x" viewBox="0 0 24 24" width="24">
  <defs>
    <style>
      .fill {
        fill: #fff;
        opacity: 0.65;
      }

      
    </style>
  </defs>
  <title>S_Info_12_N_D@2x</title>
  <path class="fill" d="M12,.241A11.76,11.76,0,1,0,23.761,12h0A11.76,11.76,0,0,0,12,.241Zm-.037,3.2a2.467,2.467,0,0,1,2.6,2.327c0,.078.005.155,0,.232a2.419,2.419,0,0,1-2.223,2.6,2.373,2.373,0,0,1-.377,0A2.456,2.456,0,0,1,9.364,6a2.466,2.466,0,0,1,2.363-2.565c.079,0,.158,0,.237,0ZM14.833,20H9.253a1.133,1.133,0,0,1-1.167-1,1.132,1.132,0,0,1,1.167-1H10V12H9.21a1.133,1.133,0,0,1-1.167-1A1.132,1.132,0,0,1,9.21,10H13.6a.4.4,0,0,1,.4.4V18h.833A1.132,1.132,0,0,1,16,19,1.133,1.133,0,0,1,14.833,20Z" />
  </svg>