<svg xmlns="http://www.w3.org/2000/svg" data-name="S_NeedingAE_17x15_N_D@2x" height="30" id="S_NeedingAE_17x15_N_D_2x" viewBox="0 0 34 30" width="34">
  <defs>
    <style>
	.background {
		fill: #000000;
		
        opacity: 0.65;
      }
	.red {
        fill: #f53c3c;
      }</style>
  </defs>
  <title>S_NeedingAE_17x15_N_D@2x</title>
  <rect class="background" height="30" width="34" />
  <path class="red" d="M12.615,9.012H10.2c-.057,0-.1.038-.1.115a3.519,3.519,0,0,1-.115.95L6.725,21.515c-.018.132,0,.172.115.172H8.53c.115,0,.153-.04.172-.135l.95-3.615H13.26l.99,3.635a.154.154,0,0,0,.17.115h1.9c.095,0,.115-.057.095-.152L12.75,9.128C12.73,9.032,12.692,9.012,12.615,9.012Zm-2.508,7.22c.475-1.785,1.083-4.047,1.33-5.4h.02c.285,1.347,1.045,4.122,1.367,5.4Z" />
  <path class="red" d="M33.924,26.988,27.6,14.384a.7.7,0,0,0-1.247,0l-6.281,12.6A.7.7,0,0,0,20.7,28H33.3a.7.7,0,0,0,.623-1.012ZM25.96,18.55a.144.144,0,0,1,.1-.147,3.053,3.053,0,0,1,.9-.144,3.609,3.609,0,0,1,.917.109c.089.033.117.093.117.128v.927a30.5,30.5,0,0,1-.435,4c0,.033-.019.068-.123.068h-.919c-.07,0-.1-.022-.123-.068a37.1,37.1,0,0,1-.436-4Zm1.018,8.082a1.054,1.054,0,1,1,1.054-1.055A1.054,1.054,0,0,1,26.978,26.632Z" />
  <path class="red" d="M20.457,21.733l.87-1.746a2.3,2.3,0,0,1-1.838-2.555h3c.038,0,.076,0,.114,0l1.684-3.379a3.122,3.122,0,0,0-3.009-1.882c-2.47,0-3.878,2.223-3.878,4.94C17.4,19.277,18.258,21.241,20.457,21.733Zm.742-7.876a1.6,1.6,0,0,1,1.507,1.688q0,.04-.007.08c0,.057.013.235.013.313a4.569,4.569,0,0,1-.872.044H19.432C19.547,14.957,20.1,13.857,21.2,13.857Z" />
  <path class="background" d="M26.519,23.492h.919c.1,0,.123-.035.123-.068a30.487,30.487,0,0,0,.435-4V18.5c0-.036-.029-.1-.117-.128a3.607,3.607,0,0,0-.917-.109,3.055,3.055,0,0,0-.9.144.144.144,0,0,0-.1.147v.872a37.114,37.114,0,0,0,.436,4C26.414,23.47,26.45,23.492,26.519,23.492Z" />
  <circle class="background" cx="26.979" cy="25.578" r="1.054" />
  <path class="red" d="M18.282,26.1l.049-.1H4V4H28v8.226a2.678,2.678,0,0,1,1.387,1.261L30,14.708V2H2V28H18.1A2.685,2.685,0,0,1,18.282,26.1Z" />
  </svg>