<svg xmlns="http://www.w3.org/2000/svg" data-name="S_ShoppingCart_12_N_D@2x" height="24" id="S_ShoppingCart_12_N_D_2x" viewBox="0 0 24 24" width="24">
  <defs>
    <style>
      .fill {
        fill: #fff;
        opacity: 0.65;
      }

      
    </style>
  </defs>
  <title>S_ShoppingCart_12_N_D@2x</title>
  <path class="fill" d="M18.244,13.072l2.508-5.446A1.146,1.146,0,0,0,19.711,6H6.934L5.757,3A1.583,1.583,0,0,0,4.283,2H2A1,1,0,0,0,1,3H1A1,1,0,0,0,2,4H4L8,14,6.9,16.2A1.244,1.244,0,0,0,8.014,18H19a1,1,0,0,0,1-1h0a1,1,0,0,0-1-1H9.123l.921-2H16.8A1.6,1.6,0,0,0,18.244,13.072ZM7.72,8H18.378l-1.842,4H9.293ZM8,22.65A1.65,1.65,0,1,1,9.65,21h0A1.65,1.65,0,0,1,8,22.65Zm8,0A1.65,1.65,0,1,1,17.65,21h0A1.65,1.65,0,0,1,16,22.65Z" />
  </svg>