<svg xmlns="http://www.w3.org/2000/svg" viewBox="0 0 240 234"><title>S_Stock_N</title><rect x="10" y="10" width="220" height="214" fill="#200200"/><path d="M0,0V234H240V0ZM10,10H230V224H10Z" transform="translate(0)" fill="#ff4486" fill-rule="evenodd"/><path d="M61,158.8a2.44,2.44,0,0,1-1-2.14V140.82a.79.79,0,0,1,1.32-.5,43,43,0,0,0,24.36,7.43c12,0,17-6.27,17-13.37,0-6.27-3.13-11.38-14.68-18.15l-5.94-3.13c-17-9.57-21.95-19.31-21.95-31.68,0-16.83,11.72-30.36,33.83-30.36,9.73,0,17,1.48,21.08,3.79.83.33,1,.83,1,1.82V71.52a.8.8,0,0,1-1.32.66c-5.11-3.3-12.67-5-20.42-5-12.71,0-16.83,7.26-16.83,13,0,6.27,3.13,10.89,14.52,17.16l5.28,2.81c18.81,10.39,23.59,20.46,23.59,32.83,0,18.32-13.36,31-35.14,31C75.94,164.08,67.1,162.27,61,158.8Zm114.51,1.49a1.78,1.78,0,0,1-1.16,1.81,33.17,33.17,0,0,1-12.2,2c-12.55,0-19.64-6.6-19.64-22.11V97H133c-.82,0-1-.33-1-1.16V82.57c0-.82.17-1.32,1.16-1.32h9.48c.17-5.78.83-15.84,1.49-19,0-1.16.49-1.49,1.15-1.65l14.85-2c.66-.17,1.16,0,1.16.82-.33,4.78-.5,12.87-.66,21.78h14.46c.83,0,1.16.33,1.16,1.16V96c0,.82-.5,1-1.16,1H160.5v41.91c0,6.77,2.31,9.83,8.41,9.83a21.87,21.87,0,0,0,5.6-.66c.49-.17,1,.16,1,1Z" transform="translate(0)" fill="#ff4486" fill-rule="evenodd"/></svg>