<?xml version="1.0" encoding="utf-8"?>
<!-- Generator: Adobe Illustrator 21.0.2, SVG Export Plug-In . SVG Version: 6.00 Build 0)  -->
<svg version="1.1" id="tk_x5F_cc_x5F_app_x5F_gray.svg"
	 xmlns="http://www.w3.org/2000/svg" xmlns:xlink="http://www.w3.org/1999/xlink" x="0px" y="0px" viewBox="0 0 32 32"
	 style="enable-background:new 0 0 32 32;" xml:space="preserve">
<style type="text/css">
	.st0{fill:#45A9F5;}
</style>
<g>
	<g>
		<path class="st0" d="M0,0v32h32V0H0z M1.3,1.4h29.3v29.3H1.3V1.4z"/>
	</g>
	<g>
		<path class="st0" d="M9.6,9.5H6c-0.1,0-0.2,0-0.1-0.2l0.3-1.9c0-0.1,0.1-0.2,0.2-0.2h9.2c0.1,0,0.2,0,0.2,0.2L16,9.3
			c0,0.1,0,0.2-0.2,0.2H12v12.6c0,0.1,0,0.2-0.2,0.2h-2c-0.1,0-0.2,0-0.2-0.2V9.5z"/>
		<path class="st0" d="M19.7,16.1l3.4-4.7c0.1-0.1,0.1-0.2,0.2-0.2h2.2c0.1,0,0.2,0.1,0.1,0.2c-0.5,0.7-2.9,3.8-3.7,4.8v0.1l4.3,5.8
			c0,0.1,0,0.2-0.1,0.2h-2.6c-0.1,0-0.2,0-0.2-0.1c-0.7-1-2.6-3.7-3.5-5v5c0,0.1,0,0.2-0.2,0.2h-2.1c-0.2,0-0.2,0-0.2-0.2V7.5
			c0-0.1,0-0.1,0.2-0.1h2.1c0.1,0,0.2,0,0.2,0.2L19.7,16.1L19.7,16.1z"/>
	</g>
</g>
</svg>
